<svg width="37" height="31" viewBox="0 0 37 31" fill="none" xmlns="http://www.w3.org/2000/svg">
<g clip-path="url(#clip0_2011_388)">
<path d="M36.3532 19.0407L35.009 18.7881C34.9483 18.0503 34.7967 17.3327 34.5542 16.6253L35.6861 15.8572C36.05 15.6146 36.1409 15.1194 35.8984 14.7657L33.9074 11.8348C33.7861 11.663 33.6042 11.5417 33.402 11.5013C33.1999 11.4608 32.9877 11.5013 32.8159 11.6225L31.6839 12.3906C31.118 11.9156 30.5015 11.5013 29.8344 11.1778L30.0871 9.83368C30.168 9.4092 29.885 8.99483 29.4605 8.91398L25.9737 8.24695C25.7716 8.20652 25.5594 8.24695 25.3876 8.36823C25.2158 8.48951 25.0945 8.67142 25.054 8.87356L24.8014 10.2177C24.0636 10.2784 23.346 10.43 22.6386 10.6624L21.8705 9.53048C21.7492 9.35867 21.5673 9.23739 21.3652 9.19696C21.163 9.15654 20.9508 9.20707 20.779 9.31824L17.8481 11.3092C17.6763 11.4305 17.555 11.6124 17.5146 11.8146C17.4741 12.0167 17.5146 12.2289 17.6359 12.4108L18.4039 13.5428C17.9289 14.1087 17.5146 14.7252 17.1912 15.3923L15.847 15.1396C15.6449 15.0992 15.4326 15.1497 15.2507 15.2609C15.0789 15.3822 14.9576 15.5641 14.9172 15.7662L14.2502 19.253C14.1693 19.6774 14.4523 20.0918 14.8768 20.1727L16.2209 20.4253C16.2816 21.1631 16.4332 21.8807 16.6757 22.5881L15.5438 23.3562C15.372 23.4775 15.2507 23.6594 15.2103 23.8615C15.1699 24.0637 15.2103 24.2759 15.3316 24.4477L17.3226 27.3786C17.4438 27.5504 17.6257 27.6717 17.8279 27.7121C18.03 27.7526 18.2422 27.702 18.4242 27.5909L19.5561 26.8228C20.1221 27.2978 20.7386 27.7121 21.4056 28.0355L21.1529 29.3797C21.0721 29.8042 21.3551 30.2186 21.7795 30.2994L25.2663 30.9664C25.3168 30.9765 25.3674 30.9765 25.4179 30.9765C25.7918 30.9765 26.1152 30.7138 26.1961 30.3398L26.4487 28.9957C27.1865 28.935 27.9041 28.7834 28.6115 28.551L29.3796 29.6829C29.5009 29.8547 29.6828 29.976 29.885 30.0164C30.0871 30.0568 30.2993 30.0164 30.4813 29.8951L33.4122 27.9042C33.776 27.6616 33.8669 27.1664 33.6244 26.8127L32.8563 25.6807C33.3313 25.1148 33.7457 24.4983 34.0691 23.8312L35.4132 24.0839C35.8377 24.1647 36.2521 23.8818 36.3329 23.4573L37 19.9705C37.0404 19.7684 37 19.5562 36.8787 19.3843C36.7473 19.2024 36.5654 19.0812 36.3532 19.0407ZM34.918 22.3759L33.7356 22.1535C33.3717 22.0828 32.9978 22.2849 32.8563 22.6285C32.4823 23.528 31.9467 24.3467 31.2595 25.0541C30.9967 25.327 30.9664 25.7414 31.1786 26.0446L31.8557 27.035L30.2286 28.1467L29.5515 27.1563C29.3392 26.843 28.9451 26.7318 28.6014 26.8733C27.6919 27.2472 26.7317 27.4494 25.7615 27.4595C25.3876 27.4696 25.0743 27.7323 25.0035 28.0962L24.7812 29.2786L22.8407 28.9047L23.0631 27.7222C23.1338 27.3584 22.9317 26.9845 22.5881 26.843C21.6886 26.469 20.8699 25.9334 20.1625 25.2461C19.8896 24.9834 19.4752 24.953 19.172 25.1653L18.1816 25.8424L17.0699 24.2153L18.0603 23.5381C18.3736 23.3259 18.4848 22.9317 18.3433 22.5881C17.9694 21.6785 17.7672 20.7184 17.7571 19.7482C17.747 19.3742 17.4843 19.0609 17.1204 18.9902L15.938 18.7679L16.3018 16.8375L17.4843 17.0598C17.8481 17.1306 18.2119 16.9285 18.3635 16.5848C18.7375 15.6854 19.2731 14.8667 19.9604 14.1593C20.2231 13.8864 20.2534 13.4821 20.0412 13.1688L19.3641 12.1784L20.9912 11.0667L21.6684 12.0571C21.8806 12.3704 22.2748 12.4816 22.6184 12.3401C23.528 11.9662 24.478 11.764 25.4583 11.7539C25.8323 11.7438 26.1456 11.481 26.2163 11.1172L26.4386 9.94485L28.369 10.3188L28.1466 11.5013C28.0759 11.8651 28.278 12.239 28.6217 12.3805C29.5211 12.7545 30.3398 13.2901 31.0472 13.9774C31.3201 14.2401 31.7345 14.2704 32.0377 14.0582L33.0281 13.3811L34.1398 15.0082L33.1494 15.6854C32.8361 15.8976 32.7249 16.2917 32.8664 16.6354C33.2403 17.545 33.4425 18.495 33.4526 19.4753C33.4627 19.8493 33.7255 20.1626 34.0893 20.2333L35.2718 20.4556L34.918 22.3759Z" fill="#097636"/>
<path d="M26.6812 14.038C25.1956 13.755 23.6897 14.0683 22.4365 14.9173C21.1833 15.7662 20.3343 17.0599 20.0513 18.5455C19.7684 20.0312 20.0817 21.537 20.9306 22.7903C21.7796 24.0435 23.0732 24.8924 24.5589 25.1754C24.9126 25.2461 25.2764 25.2765 25.62 25.2765C28.2882 25.2765 30.6733 23.3865 31.1887 20.6679C31.7749 17.5955 29.7536 14.6242 26.6812 14.038ZM29.6323 20.3748C29.4302 21.4461 28.8137 22.3759 27.9142 22.9924C27.0147 23.6089 25.9232 23.8312 24.8519 23.6291C23.7807 23.427 22.8508 22.8105 22.2344 21.911C21.6179 21.0115 21.3955 19.92 21.5976 18.8487C21.7998 17.7774 22.4163 16.8476 23.3157 16.2311C24.003 15.7662 24.7913 15.5237 25.6099 15.5237C25.8626 15.5237 26.1254 15.5439 26.3881 15.5944C28.6015 16.0088 30.0568 18.1514 29.6323 20.3748Z" fill="#097636"/>
<path d="M7.62031 15.5742L7.7618 16.5949C7.78202 16.7465 7.86287 16.888 7.99425 16.9891C8.09532 17.0699 8.22671 17.1104 8.34798 17.1104C8.3783 17.1104 8.40862 17.1104 8.42884 17.1003L11.0666 16.7263C11.39 16.6758 11.6124 16.3827 11.572 16.0593L11.4305 15.0385C11.9358 14.8162 12.4209 14.5332 12.8555 14.1896L13.6842 14.8061C13.947 14.9981 14.3209 14.9476 14.513 14.6848L16.1098 12.5523C16.3018 12.2896 16.2513 11.9156 15.9885 11.7236L15.1598 11.1071C15.3619 10.5917 15.5034 10.0459 15.5742 9.50016L16.5949 9.35866C16.7465 9.33845 16.888 9.2576 16.9891 9.12621C17.08 9.00494 17.1205 8.84323 17.1002 8.69163L16.7162 6.05383C16.6657 5.73042 16.3726 5.50808 16.0492 5.5485L15.0284 5.68999C14.8061 5.18467 14.5231 4.69955 14.1795 4.26497L14.796 3.43624C14.8869 3.31496 14.9273 3.15325 14.9071 3.00166C14.8869 2.85006 14.8061 2.70857 14.6747 2.6075L12.5422 1.01067C12.4209 0.91971 12.2592 0.879284 12.0975 0.899497C11.9459 0.91971 11.8044 1.00056 11.7034 1.13195L11.0869 1.96068C10.5613 1.75855 10.0257 1.61706 9.47991 1.54631L9.33842 0.505342C9.298 0.181933 8.9948 -0.0404106 8.67139 0.010122L6.03359 0.384064C5.88199 0.404277 5.7405 0.495236 5.63943 0.616514C5.54847 0.737792 5.50805 0.899497 5.52826 1.05109L5.66975 2.07185C5.16443 2.2942 4.68942 2.57718 4.24473 2.9208L3.4261 2.3043C3.29472 2.21335 3.14312 2.17292 2.98141 2.19313C2.82982 2.21335 2.68833 2.2942 2.59737 2.42558L0.990428 4.55806C0.899469 4.67934 0.859043 4.84104 0.879256 5.00275C0.909575 5.15435 0.990428 5.29584 1.11171 5.3868L1.94044 6.0033C1.73831 6.52884 1.59682 7.06448 1.52607 7.61023L0.505314 7.76183C0.353716 7.78205 0.212225 7.8629 0.121266 7.99428C0.0202007 8.11556 -0.0202255 8.27727 0.0100941 8.42886L0.394142 11.0667C0.444675 11.3901 0.737764 11.6124 1.06117 11.572L2.08193 11.4305C2.30428 11.9358 2.58726 12.4209 2.93088 12.8555L2.31438 13.6843C2.22342 13.8055 2.183 13.9672 2.20321 14.1188C2.22342 14.2704 2.30428 14.4119 2.43566 14.513L4.56814 16.1098C4.83091 16.3019 5.20485 16.2513 5.39688 15.9885L6.01337 15.1598C6.52881 15.3619 7.06445 15.5034 7.62031 15.5742ZM5.33624 14.0784L4.79048 14.796L3.60802 13.9066L4.15377 13.189C4.32558 12.9667 4.30537 12.6534 4.12345 12.4412C3.63834 11.8853 3.2644 11.2587 3.01173 10.5613C2.91067 10.2986 2.6479 10.1369 2.37502 10.1773L1.48565 10.3087L1.2633 8.85334L2.15268 8.72195C2.43566 8.68153 2.63779 8.44908 2.65801 8.1762C2.70854 7.43842 2.89046 6.73097 3.20376 6.06393C3.32504 5.81127 3.24418 5.50808 3.02184 5.33626L2.30428 4.79051L3.19365 3.60805L3.92132 4.1538C4.13356 4.3155 4.44686 4.3054 4.6591 4.12348C5.21496 3.63837 5.84156 3.26443 6.52881 3.01176C6.79158 2.9208 6.95328 2.64793 6.91286 2.37505L6.79158 1.47557L8.25702 1.26333L8.38841 2.15271C8.42884 2.42558 8.66129 2.63782 8.93416 2.65803C9.66183 2.70857 10.3794 2.89048 11.0464 3.20379C11.2991 3.32506 11.6023 3.24421 11.7741 3.02187L12.3198 2.2942L13.5023 3.18357L12.9566 3.90114C12.7848 4.12348 12.805 4.43678 12.9869 4.64902C13.472 5.20488 13.8459 5.83148 14.0986 6.52884C14.1997 6.79161 14.4624 6.95331 14.7353 6.91288L15.6247 6.7815L15.8369 8.24695L14.9475 8.37833C14.6646 8.41876 14.4624 8.65121 14.4422 8.92408C14.3917 9.65175 14.2098 10.3693 13.8965 11.0363C13.7752 11.289 13.856 11.5922 14.0784 11.764L14.8061 12.3098L13.9167 13.4922L13.1991 12.9465C12.9768 12.7747 12.6635 12.7949 12.4512 12.9768C11.8954 13.4619 11.2688 13.8359 10.5815 14.0885C10.3188 14.1896 10.1571 14.4524 10.1975 14.7252L10.3289 15.6146L8.86342 15.8268L8.73203 14.9375C8.69161 14.6646 8.45916 14.4524 8.18628 14.4321C7.4384 14.3917 6.73094 14.2098 6.06391 13.8965C5.98305 13.8561 5.9022 13.846 5.81124 13.846C5.62933 13.846 5.44741 13.9268 5.33624 14.0784Z" fill="#097636"/>
<path d="M9.15646 12.7746C11.481 12.4411 13.098 10.2783 12.7645 7.9538C12.431 5.62929 10.2682 4.01225 7.94368 4.34576C5.61918 4.67928 4.00213 6.84208 4.33565 9.16658C4.63884 11.289 6.46813 12.8251 8.55007 12.8251C8.7522 12.815 8.95433 12.7948 9.15646 12.7746ZM5.50801 8.98466C5.26545 7.30698 6.43781 5.75057 8.11549 5.50802C8.26709 5.4878 8.40858 5.4777 8.55007 5.4777C10.0559 5.4777 11.3698 6.58941 11.5921 8.1155C11.8347 9.79319 10.6623 11.3597 8.98465 11.5921C7.30697 11.8347 5.75056 10.6725 5.50801 8.98466Z" fill="#097636"/>
</g>
<defs>
<clipPath id="clip0_2011_388">
<rect width="36.61" height="30.66" fill="white" transform="scale(1.01065)"/>
</clipPath>
</defs>
</svg>
