<svg width="68" height="75" viewBox="0 0 68 75" fill="none" xmlns="http://www.w3.org/2000/svg">
<g clip-path="url(#clip0_2009_148)">
<path d="M15.6243 67.4853C18.6951 67.4853 21.1763 65.1599 21.1763 62.3205V24.3554C21.1763 21.4915 18.6951 19.1906 15.6243 19.1906H5.55202C2.48121 19.1906 0 21.4915 0 24.3554V62.3205C0 65.1844 2.48121 67.4853 5.55202 67.4853H15.6243ZM2.77601 62.3205V24.3554C2.77601 23.0336 4.0289 21.9321 5.55202 21.9321H15.6243C17.1474 21.9321 18.4003 23.0091 18.4003 24.3554V62.3205C18.4003 63.6423 17.1474 64.7438 15.6243 64.7438H5.55202C4.00434 64.7193 2.77601 63.6423 2.77601 62.3205Z" fill="white"/>
<path d="M52.3758 0C49.3049 0 46.8237 3.03525 46.8237 6.78035V60.705C46.8237 64.4256 49.3049 67.4853 52.3758 67.4853H62.448C65.5188 67.4853 68 64.4501 68 60.705V6.78035C68 3.05973 65.5188 0 62.448 0H52.3758ZM65.224 6.78035V60.705C65.224 62.8835 63.9466 64.7193 62.448 64.7193H52.3758C50.8772 64.7193 49.5997 62.8835 49.5997 60.705V6.78035C49.5997 4.60183 50.8772 2.76599 52.3758 2.76599H62.448C63.9711 2.76599 65.224 4.60183 65.224 6.78035Z" fill="white"/>
<path d="M28.6199 67.4853H38.6921C41.8121 67.4853 44.2442 65.7719 44.2442 63.5934V38.5036C44.2442 36.3251 41.8121 34.6116 38.6921 34.6116H28.6199C25.5 34.6116 23.0679 36.3251 23.0679 38.5036V63.5934C23.0679 65.7719 25.5245 67.4853 28.6199 67.4853ZM25.8439 38.5036C25.8439 38.1609 26.9002 37.3776 28.6199 37.3776H38.6921C40.4118 37.3776 41.4682 38.1609 41.4682 38.5036V63.5934C41.4682 63.936 40.4118 64.7193 38.6921 64.7193H28.6199C26.9002 64.7193 25.8439 63.936 25.8439 63.5934V38.5036Z" fill="white"/>
<path d="M2.43213 72.4788C2.43213 73.874 3.68502 75 5.20814 75H63.8483C65.3714 75 66.6243 73.874 66.6243 72.4788C66.6243 71.0836 65.3714 69.9576 63.8483 69.9576H5.20814C3.66045 69.9576 2.43213 71.0836 2.43213 72.4788Z" fill="white"/>
</g>
<defs>
<clipPath id="clip0_2009_148">
<rect width="68" height="75" fill="white"/>
</clipPath>
</defs>
</svg>
