<svg width="2061" height="1530" viewBox="0 0 2061 1530" fill="none" xmlns="http://www.w3.org/2000/svg">
<g clip-path="url(#clip0_2011_319)">
<path d="M2060.29 997.849C2030.98 -332.616 30.0172 -332.616 0.714694 997.849C0.536021 1007.65 0 1520.02 0 1530C9.11235 1530 18.046 1530 27.1584 1530C27.1584 1520.02 27.6944 1007.65 27.8731 997.849C57.1756 -296.451 2003.82 -296.451 2033.13 997.849C2033.31 1007.65 2033.84 1520.02 2033.84 1530C2042.95 1530 2051.89 1530 2061 1530C2061 1520.02 2060.46 1007.65 2060.29 997.849Z" fill="#D9D9D9"/>
<path d="M84.1554 997.849C83.9767 1007.65 83.4407 1520.02 83.4407 1530C92.553 1530 101.487 1530 110.599 1530C110.599 1520.02 111.135 1007.65 111.314 997.849C140.616 -185.638 1920.38 -185.638 1949.69 997.849C1949.87 1007.65 1950.4 1520.02 1950.4 1530C1959.51 1530 1968.45 1530 1977.56 1530C1977.56 1520.02 1977.02 1007.65 1976.84 997.849C1947.54 -221.804 113.458 -221.804 84.1554 997.849Z" fill="#D9D9D9"/>
<path d="M167.596 997.849C167.417 1007.65 166.881 1520.02 166.881 1530C175.993 1530 184.927 1530 194.039 1530C194.039 1520.02 194.397 1007.65 194.754 997.849C223.878 -74.6472 1837.12 -74.6472 1866.25 997.849C1866.42 1007.65 1866.96 1520.02 1866.96 1530C1876.07 1530 1885.01 1530 1894.12 1530C1894.12 1520.02 1893.76 1007.65 1893.4 997.849C1864.28 -110.813 196.72 -110.813 167.596 997.849Z" fill="#D9D9D9"/>
<path d="M251.036 997.849C250.679 1007.65 250.322 1520.02 250.322 1530C259.434 1530 268.368 1530 277.48 1530C277.48 1520.02 277.838 1007.65 278.195 997.849C307.319 36.1656 1753.86 36.1656 1782.98 997.849C1783.34 1007.65 1783.7 1520.02 1783.7 1530C1792.81 1530 1801.74 1530 1810.86 1530C1810.86 1520.02 1810.5 1007.65 1810.14 997.849C1780.84 4.57764e-05 280.16 4.57764e-05 251.036 997.849Z" fill="#D9D9D9"/>
<path d="M334.477 997.849C334.12 1007.65 333.762 1520.02 333.762 1530C342.875 1530 351.808 1530 360.921 1530C360.921 1520.02 361.278 1007.65 361.635 997.849C390.58 146.978 1670.42 146.978 1699.54 997.849C1699.9 1007.65 1700.26 1520.02 1700.26 1530C1709.37 1530 1718.3 1530 1727.42 1530C1727.42 1520.02 1727.06 1007.65 1726.7 997.849C1697.58 110.991 363.422 110.991 334.477 997.849Z" fill="#D9D9D9"/>
<path d="M417.918 997.849C417.56 1007.65 417.203 1520.02 417.203 1530C426.315 1530 435.249 1530 444.361 1530C444.361 1520.02 444.719 1007.65 445.076 997.849C473.842 257.969 1587.16 257.969 1616.1 997.849C1616.46 1007.65 1616.82 1520.02 1616.82 1530C1625.93 1530 1634.86 1530 1643.98 1530C1643.98 1520.02 1643.62 1007.65 1643.26 997.849C1614.32 221.804 446.684 221.804 417.918 997.849Z" fill="#D9D9D9"/>
<path d="M501.358 997.849C501.001 1007.47 500.644 1520.02 500.644 1530C509.756 1530 518.69 1530 527.802 1530C527.802 1520.02 527.981 1007.47 528.517 997.849C557.104 368.782 1503.9 368.782 1532.66 997.849C1533.02 1007.47 1533.38 1520.02 1533.38 1530C1542.49 1530 1551.42 1530 1560.54 1530C1560.54 1520.02 1560.18 1007.65 1559.82 997.849C1531.05 332.616 529.946 332.616 501.358 997.849Z" fill="#D9D9D9"/>
<path d="M584.799 997.849C584.263 1007.47 584.084 1520.02 584.084 1530C593.196 1530 602.13 1530 611.242 1530C611.242 1520.02 611.6 1007.47 612.136 997.849C640.724 479.773 1420.46 479.773 1449.04 997.849C1449.58 1007.47 1449.94 1520.02 1449.94 1530C1459.05 1530 1467.98 1530 1477.09 1530C1477.09 1520.02 1476.74 1007.47 1476.38 997.849C1447.61 443.429 613.386 443.429 584.799 997.849Z" fill="#D9D9D9"/>
<g clip-path="url(#clip1_2011_319)">
<path d="M527.707 797.598C527.707 795.835 528.216 794.072 529.234 792.466L548.024 763.633C557.38 749.255 557.38 730.686 548.024 716.308C534.558 695.663 534.558 669.023 547.985 648.417C557.38 634 557.38 615.431 547.985 601.054C547.946 601.014 547.907 600.975 547.907 600.897C534.558 580.291 534.597 553.729 547.985 533.162C557.341 518.785 557.341 500.216 547.985 485.838C534.558 465.232 534.558 438.592 547.985 417.986L566.775 389.27C569.594 384.922 575.427 383.707 579.772 386.528C584.117 389.348 585.331 395.186 582.512 399.534L563.761 428.328C554.405 442.706 554.405 461.275 563.761 475.652C577.188 496.259 577.188 522.898 563.761 543.505C554.405 557.882 554.405 576.451 563.761 590.829C563.8 590.868 563.839 590.907 563.839 590.986C577.188 611.553 577.149 638.114 563.761 658.681C554.366 673.098 554.366 691.667 563.722 706.044C577.188 726.69 577.188 753.329 563.761 773.936L544.971 802.769C542.152 807.117 536.319 808.332 531.974 805.511C529.194 803.709 527.707 800.693 527.707 797.598Z" fill="#4682A9"/>
<path d="M477.834 797.598C477.834 795.835 478.343 794.072 479.361 792.466L498.151 763.633C507.507 749.255 507.507 730.686 498.151 716.308C484.685 695.663 484.724 669.023 498.112 648.417C507.507 634 507.507 615.431 498.151 601.054C484.724 580.447 484.724 553.808 498.151 533.201C507.507 518.824 507.507 500.255 498.151 485.877C484.724 465.271 484.724 438.631 498.151 418.025L516.902 389.231C519.721 384.882 525.554 383.668 529.899 386.489C534.244 389.309 535.458 395.146 532.639 399.495L513.888 428.289C504.532 442.667 504.532 461.236 513.888 475.613C527.315 496.22 527.315 522.859 513.888 543.465C504.532 557.843 504.532 576.412 513.888 590.79C527.315 611.396 527.315 638.035 513.888 658.642C504.493 673.058 504.493 691.628 513.849 706.005C527.315 726.651 527.315 753.29 513.888 773.897L495.098 802.73C492.279 807.078 486.446 808.293 482.101 805.472C479.361 803.709 477.834 800.693 477.834 797.598Z" fill="#4682A9"/>
<path d="M428 797.598C428 795.835 428.509 794.072 429.527 792.466L448.317 763.633C457.673 749.255 457.673 730.686 448.317 716.308C434.89 695.663 434.89 669.023 448.278 648.417C457.673 634 457.673 615.431 448.317 601.054C434.89 580.447 434.89 553.808 448.317 533.201C457.673 518.824 457.673 500.255 448.317 485.877C434.89 465.271 434.89 438.631 448.317 418.025L467.069 389.231C469.887 384.882 475.72 383.668 480.065 386.489C484.411 389.309 485.624 395.146 482.806 399.495L464.054 428.289C454.698 442.667 454.698 461.236 464.054 475.613C477.482 496.22 477.482 522.859 464.054 543.465C454.698 557.843 454.698 576.412 464.054 590.79C477.482 611.396 477.482 638.035 464.054 658.642C454.659 673.058 454.659 691.628 464.015 706.005C477.443 726.651 477.482 753.29 464.054 773.897L445.264 802.73C442.445 807.078 436.612 808.293 432.267 805.472C429.488 803.709 428 800.693 428 797.598Z" fill="#4682A9"/>
</g>
</g>
<defs>
<clipPath id="clip0_2011_319">
<rect width="2061" height="1530" fill="white"/>
</clipPath>
<clipPath id="clip1_2011_319">
<rect width="422" height="156" fill="white" transform="matrix(0 1 -1 0 584 385)"/>
</clipPath>
</defs>
</svg>
