<svg width="29" height="33" viewBox="0 0 29 33" fill="none" xmlns="http://www.w3.org/2000/svg">
<g clip-path="url(#clip0_2011_367)">
<path d="M17.5628 10.8805L14.6259 13.137L11.6889 10.8805C11.5547 10.7405 11.3365 10.7405 11.2023 10.8805C11.068 11.0204 11.068 11.2478 11.2023 11.3878L14.2734 13.8105V16.1983C14.2734 16.3907 14.4245 16.5569 14.6175 16.5569C14.8021 16.5569 14.9615 16.3994 14.9615 16.1983V13.8192L18.0411 11.3878C18.1753 11.2478 18.1753 11.0204 18.0411 10.8805C17.9068 10.7405 17.697 10.7405 17.5628 10.8805Z" fill="#A94646"/>
<path d="M2.316 1.26822C1.53562 2.08163 1.10767 3.16618 1.10767 4.31195C1.10767 6.69096 2.96212 8.62391 5.24453 8.62391C6.34378 8.62391 7.38429 8.17784 8.16467 7.35569C8.94505 6.54227 9.38139 5.45773 9.373 4.31195C9.373 1.93294 7.51855 0 5.23614 0C4.13689 0 3.09638 0.446064 2.316 1.26822ZM8.28215 4.31195C8.28215 5.16035 7.96328 5.95627 7.39268 6.55102C6.81368 7.15452 6.05009 7.47813 5.24453 7.47813C3.56629 7.47813 2.20691 6.05248 2.20691 4.31195C2.20691 3.46356 2.52578 2.66764 3.09638 2.07289C3.66698 1.46939 4.43058 1.13703 5.23614 1.13703C6.91438 1.13703 8.28215 2.56268 8.28215 4.31195Z" fill="#A94646"/>
<path d="M0.545428 15.2187H9.92679C10.2205 15.2187 10.4638 14.9738 10.4722 14.6677C10.4806 14.5103 10.5645 10.8718 8.36603 8.77265C8.18142 8.58898 7.88773 8.58023 7.66956 8.74641C7.65278 8.7639 5.21933 10.6706 2.9621 8.74641C2.75231 8.57148 2.45862 8.58023 2.25723 8.75516C2.16493 8.84262 0.0503472 10.8018 0 14.6415C0 14.7901 0.0503472 14.9388 0.159433 15.0525C0.260127 15.1575 0.402778 15.2187 0.545428 15.2187ZM2.67679 9.94466C4.64873 11.3091 6.7717 10.6619 7.93808 9.93591C9.05411 11.2479 9.31424 13.1546 9.37297 14.0817H1.12442C1.29225 11.9038 2.1985 10.5307 2.67679 9.94466Z" fill="#A94646"/>
<path d="M23.7555 8.62391C24.8631 8.62391 25.8952 8.17784 26.6756 7.35569C27.456 6.54227 27.8923 5.45773 27.8839 4.31195C27.8839 1.93294 26.0295 0 23.7471 0C22.6562 0 21.6157 0.446064 20.8353 1.26822C20.0549 2.08163 19.627 3.16618 19.627 4.31195C19.6186 6.69096 21.473 8.62391 23.7555 8.62391ZM21.6073 2.07289C22.1863 1.46939 22.9499 1.14577 23.7555 1.14577C25.4337 1.14577 26.7931 2.57143 26.7931 4.31195C26.7931 5.16035 26.4742 5.95627 25.9036 6.55102C25.333 7.15452 24.5694 7.47813 23.7555 7.47813C22.0772 7.47813 20.7178 6.05248 20.7178 4.31195C20.7178 3.46356 21.0283 2.66764 21.6073 2.07289Z" fill="#A94646"/>
<path d="M28.9916 14.6677C29 14.5103 29.0839 10.8718 26.8854 8.77265C26.6924 8.58898 26.3903 8.57148 26.1805 8.73766C26.1554 8.75516 23.7303 10.6619 21.4731 8.74641C21.2633 8.57148 20.9696 8.58023 20.7682 8.75516C20.6759 8.83387 18.5613 10.7931 18.511 14.6327C18.511 14.7814 18.5697 14.9301 18.6704 15.0438C18.7711 15.1487 18.9138 15.21 19.0564 15.21H28.4378C28.7399 15.2187 28.9832 14.9738 28.9916 14.6677ZM19.6354 14.0817C19.8032 11.9038 20.7095 10.5307 21.1962 9.94466C23.1681 11.3091 25.2911 10.6619 26.4575 9.93591C27.5735 11.2479 27.8336 13.1546 27.8924 14.0817H19.6354Z" fill="#A94646"/>
<path d="M14.6258 17.7814C13.5181 17.7814 12.486 18.2274 11.7056 19.0496C10.9253 19.863 10.4973 20.9476 10.4973 22.1021C10.4973 24.4811 12.3518 26.414 14.6342 26.414C15.7418 26.414 16.7739 25.968 17.5543 25.1458C18.3347 24.3324 18.7626 23.2478 18.7626 22.1021C18.7626 19.7143 16.9082 17.7814 14.6258 17.7814ZM16.7739 24.3324C16.1949 24.9359 15.4313 25.2595 14.6258 25.2595C12.9475 25.2595 11.5882 23.8426 11.5882 22.0933C11.5882 21.2449 11.907 20.449 12.4776 19.8543C13.0566 19.2508 13.8202 18.9271 14.6258 18.9271C16.304 18.9271 17.6634 20.3528 17.6634 22.0933C17.6634 22.933 17.3529 23.7289 16.7739 24.3324Z" fill="#A94646"/>
<path d="M9.93517 33H19.3165C19.6102 33 19.8536 32.7551 19.862 32.4489C19.8704 32.2915 19.9543 28.653 17.7558 26.5539C17.5628 26.3702 17.2607 26.3527 17.0509 26.5189C17.0257 26.5364 14.6007 28.4431 12.3434 26.5277C12.1337 26.3527 11.84 26.3615 11.6386 26.5364C11.5463 26.6151 9.43169 28.5743 9.38135 32.414C9.38135 32.5626 9.43169 32.7113 9.54078 32.825C9.64147 32.9387 9.78413 33 9.93517 33ZM12.0665 27.7259C14.0385 29.0903 16.1614 28.4431 17.3278 27.7172C18.4438 29.0291 18.704 30.9358 18.7627 31.8629H10.5142C10.6736 29.6851 11.5798 28.3119 12.0665 27.7259Z" fill="#A94646"/>
</g>
<defs>
<clipPath id="clip0_2011_367">
<rect width="29" height="33" fill="white"/>
</clipPath>
</defs>
</svg>
