<svg width="38" height="28" viewBox="0 0 38 28" fill="none" xmlns="http://www.w3.org/2000/svg">
<g clip-path="url(#clip0_2011_395)">
<path d="M9.76053 11.237L1.10255 18.216C0.9306 18.3576 0.829455 18.57 0.829455 18.7925V26.8942C0.829455 27.3089 1.16323 27.6326 1.56781 27.6326H10.2258C10.6405 27.6326 10.9642 27.2988 10.9642 26.8942V11.8237C10.9642 11.5404 10.8023 11.2775 10.5393 11.1561C10.2966 11.0246 9.98305 11.0651 9.76053 11.237ZM9.48744 26.1559H2.31628V19.1566L9.48744 13.3712V26.1559Z" fill="#2405BD"/>
<path d="M15.9808 6.72597L13.7456 8.12176C13.523 8.25325 13.3915 8.496 13.3915 8.74886V26.9043C13.3915 27.319 13.7253 27.6427 14.14 27.6427H22.798C23.2127 27.6427 23.5465 27.3089 23.5465 26.9043V14.059C23.5465 13.8668 23.4757 13.6847 23.3442 13.5431L16.9215 6.83723C16.6686 6.58437 16.2843 6.53379 15.9808 6.72597ZM22.0596 26.1559H14.8885V9.16355L16.2641 8.30382L22.0596 14.3523V26.1559Z" fill="#2405BD"/>
<path d="M31.8606 8.35455L26.1863 14.0288C26.0852 14.1299 26.0346 14.2614 26.0346 14.3929V27.1169C26.0346 27.4001 26.2673 27.6428 26.5606 27.6428H32.2348C32.518 27.6428 32.7607 27.4102 32.7607 27.1169V8.72878C32.7607 8.51638 32.6293 8.3242 32.4371 8.24329C32.2348 8.16237 32.0123 8.21294 31.8606 8.35455ZM31.7088 26.601H27.0764V14.6154L31.7088 9.98298V26.601Z" fill="#2405BD"/>
<path d="M36.7358 0.161764C32.6394 3.17588 28.5532 6.17987 24.4568 9.19398C22.0799 6.70582 19.6929 4.20755 17.316 1.70928C17.0631 1.4463 16.5675 1.35527 16.254 1.56767C10.9641 5.25946 5.67424 8.93101 0.394484 12.6127C-0.525932 13.2499 0.354026 14.7671 1.27444 14.1197C6.37213 10.5696 11.4799 7.01937 16.5776 3.47931C18.9646 5.97758 21.3517 8.47586 23.7387 10.9741C23.9814 11.227 24.4973 11.3383 24.8007 11.1157C29.0791 7.97013 33.3474 4.82453 37.6258 1.68905C38.5159 1.01138 37.6461 -0.505791 36.7358 0.161764Z" fill="#2405BD"/>
</g>
<defs>
<clipPath id="clip0_2011_395">
<rect width="37.57" height="27.33" fill="white" transform="scale(1.01145)"/>
</clipPath>
</defs>
</svg>
