<svg width="236" height="236" viewBox="0 0 236 236" fill="none" xmlns="http://www.w3.org/2000/svg">
<g clip-path="url(#clip0_2011_330)">
<path d="M136.691 18.6771C136.691 28.9934 128.331 37.3542 118.014 37.3542C107.698 37.3542 99.3371 28.9934 99.3371 18.6771C99.3088 8.36075 107.698 0 118.014 0C128.331 0 136.691 8.36075 136.691 18.6771Z" fill="#D9D9D9"/>
<path d="M118.014 236C128.329 236 136.691 227.638 136.691 217.323C136.691 207.008 128.329 198.646 118.014 198.646C107.699 198.646 99.3371 207.008 99.3371 217.323C99.3371 227.638 107.699 236 118.014 236Z" fill="#D9D9D9"/>
<path d="M136.691 18.6771C136.691 28.9934 128.331 37.3542 118.014 37.3542C107.698 37.3542 99.3371 28.9934 99.3371 18.6771C99.3088 8.36075 107.698 0 118.014 0C128.331 0 136.691 8.36075 136.691 18.6771Z" fill="#D9D9D9"/>
<path d="M118.014 236C128.329 236 136.691 227.638 136.691 217.323C136.691 207.008 128.329 198.646 118.014 198.646C107.699 198.646 99.3371 207.008 99.3371 217.323C99.3371 227.638 107.699 236 118.014 236Z" fill="#D9D9D9"/>
<path d="M217.323 136.691C207.007 136.691 198.646 128.33 198.646 118.014C198.646 107.698 207.007 99.3371 217.323 99.3371C227.639 99.3371 236 107.698 236 118.014C236 128.33 227.639 136.691 217.323 136.691Z" fill="#D9D9D9"/>
<path d="M18.6771 136.691C8.36075 136.691 0 128.33 0 118.014C0 107.698 8.36075 99.3371 18.6771 99.3371C28.9934 99.3371 37.3542 107.698 37.3542 118.014C37.3825 128.33 28.9934 136.691 18.6771 136.691Z" fill="#D9D9D9"/>
<path d="M188.245 66.4609C198.56 66.4609 206.922 58.0989 206.922 47.7838C206.922 37.4688 198.56 29.1068 188.245 29.1068C177.93 29.1068 169.568 37.4688 169.568 47.7838C169.568 58.0989 177.93 66.4609 188.245 66.4609Z" fill="#D9D9D9"/>
<path d="M60.991 201.452C53.7073 208.735 41.8605 208.735 34.5767 201.452C27.2929 194.168 27.2929 182.321 34.5767 175.037C41.8605 167.754 53.7073 167.754 60.991 175.037C68.2748 182.321 68.2748 194.14 60.991 201.452Z" fill="#D9D9D9"/>
<path d="M188.245 66.4609C198.56 66.4609 206.922 58.0989 206.922 47.7838C206.922 37.4688 198.56 29.1068 188.245 29.1068C177.93 29.1068 169.568 37.4688 169.568 47.7838C169.568 58.0989 177.93 66.4609 188.245 66.4609Z" fill="#D9D9D9"/>
<path d="M60.991 201.452C53.7073 208.735 41.8605 208.735 34.5767 201.452C27.2929 194.168 27.2929 182.321 34.5767 175.037C41.8605 167.754 53.7073 167.754 60.991 175.037C68.2748 182.321 68.2748 194.14 60.991 201.452Z" fill="#D9D9D9"/>
<path d="M188.245 206.922C198.56 206.922 206.922 198.56 206.922 188.245C206.922 177.929 198.56 169.567 188.245 169.567C177.93 169.567 169.568 177.929 169.568 188.245C169.568 198.56 177.93 206.922 188.245 206.922Z" fill="#D9D9D9"/>
<path d="M34.5767 60.991C27.2929 53.7072 27.2929 41.8605 34.5767 34.5767C41.8605 27.2929 53.7073 27.2929 60.991 34.5767C68.2748 41.8605 68.2748 53.7072 60.991 60.991C53.7073 68.2748 41.8605 68.2748 34.5767 60.991Z" fill="#D9D9D9"/>
</g>
<defs>
<clipPath id="clip0_2011_330">
<rect width="236" height="236" fill="white"/>
</clipPath>
</defs>
</svg>
