<svg width="602" height="790" viewBox="0 0 602 790" fill="none" xmlns="http://www.w3.org/2000/svg">
<path d="M601.406 731.405C568.099 710.934 538.076 685.581 512.462 656.377C476.434 672.81 436.653 681.919 394.526 681.919C236.528 681.919 107.99 553.178 107.99 395.141C107.99 236.916 236.622 108.269 394.526 108.269C436.559 108.269 476.434 117.378 512.462 133.811C538.076 104.607 568.099 79.3475 601.406 58.7828C541.359 21.4097 470.523 0 394.62 0C176.669 0 0 176.912 0 395.047C0 613.182 176.669 790 394.62 790C470.523 790 541.359 768.59 601.406 731.405Z" fill="white" fill-opacity="0.05"/>
</svg>
