<svg width="516" height="638" viewBox="0 0 516 638" fill="none" xmlns="http://www.w3.org/2000/svg">
<path d="M516 157.437C516 141.901 502.225 128.381 479.377 117.151C502.225 105.976 516 92.4563 516 76.8652C516 28.7291 384.814 0 258 0C131.186 0.0545143 0 28.7836 0 76.9197C0 92.4563 13.7746 105.976 36.6229 117.206C13.7746 128.381 0 141.901 0 157.437C0 172.974 13.7746 186.494 36.6229 197.723C13.7746 208.899 0 222.418 0 238.01C0 253.546 13.7746 267.066 36.6229 278.296C13.7746 289.471 0 302.991 0 318.527C0 334.064 13.7746 347.583 36.6229 358.813C13.7746 369.989 0 383.508 0 399.099C0 414.636 13.7746 428.156 36.6229 439.385C13.7746 450.561 0 464.081 0 479.617C0 495.154 13.7746 508.673 36.6229 519.903C13.7746 531.079 0 544.598 0 560.189C0 608.325 131.186 637.055 258 637.055C384.814 637.055 516 608.325 516 560.189C516 544.653 502.225 531.133 479.377 519.903C502.225 508.728 516 495.208 516 479.617C516 464.081 502.225 450.561 479.377 439.331C502.225 428.156 516 414.636 516 399.045C516 383.508 502.225 369.989 479.377 358.759C502.225 347.583 516 334.064 516 318.473C516 302.936 502.225 289.417 479.377 278.187C502.225 267.011 516 253.492 516 237.901C516 222.364 502.225 208.844 479.377 197.614C502.28 186.548 516 173.028 516 157.437ZM10.6589 76.9197C10.6589 44.9198 110.033 10.6848 258 10.6848C405.967 10.6848 505.341 44.9198 505.341 76.9197C505.341 88.8038 491.621 100.961 466.805 111.591C417.118 91.6386 336.712 80.5722 257.945 80.5722C179.179 80.5722 98.7725 91.6931 49.0856 111.591C24.3788 100.961 10.6589 88.8038 10.6589 76.9197ZM452.429 117.206C408.974 132.361 341.139 143.209 258 143.209C174.861 143.209 107.026 132.361 63.5708 117.206C107.026 102.051 174.861 91.2025 258 91.2025C341.194 91.2025 408.974 102.051 452.429 117.206ZM505.396 560.189C505.396 592.189 406.022 626.424 258.055 626.424C110.087 626.424 10.7136 592.189 10.7136 560.189C10.7136 548.305 24.4335 536.148 49.2496 525.518C98.9364 545.47 179.343 556.537 258.109 556.537C336.876 556.537 417.282 545.416 466.969 525.518C491.676 536.094 505.396 548.305 505.396 560.189ZM63.5708 519.903C107.026 504.748 174.861 493.9 258 493.9C341.139 493.9 408.974 504.748 452.429 519.903C408.974 535.058 341.139 545.906 258 545.906C174.861 545.852 107.026 535.058 63.5708 519.903ZM505.396 479.617C505.396 491.501 491.676 503.658 466.86 514.343C417.173 494.39 336.767 483.324 258 483.324C179.233 483.324 98.8271 494.445 49.1403 514.343C24.3242 503.712 10.6042 491.501 10.6042 479.617C10.6042 467.733 24.3242 455.576 49.1403 444.946C98.8271 464.898 179.233 475.965 258 475.965C336.767 475.965 417.173 464.844 466.86 444.946C491.676 455.576 505.396 467.733 505.396 479.617ZM63.5708 439.331C107.026 424.176 174.861 413.328 258 413.328C341.139 413.328 408.974 424.176 452.429 439.331C408.974 454.486 341.139 465.334 258 465.334C174.861 465.334 107.026 454.486 63.5708 439.331ZM505.396 399.099C505.396 410.984 491.676 423.14 466.86 433.771C417.173 413.818 336.767 402.752 258 402.752C179.233 402.752 98.8271 413.873 49.1403 433.771C24.3242 423.14 10.6042 410.929 10.6042 399.099C10.6042 387.215 24.3242 375.059 49.1403 364.428C98.8271 384.381 179.233 395.447 258 395.447C336.767 395.447 417.173 384.326 466.86 364.428C491.676 375.004 505.396 387.215 505.396 399.099ZM63.5708 358.813C107.026 343.658 174.861 332.81 258 332.81C341.139 332.81 408.974 343.658 452.429 358.813C408.974 373.968 341.139 384.817 258 384.817C174.861 384.817 107.026 373.968 63.5708 358.813ZM505.396 318.527C505.396 330.411 491.676 342.568 466.86 353.253C417.173 333.301 336.767 322.234 258 322.234C179.233 322.234 98.8271 333.355 49.1403 353.253C24.3242 342.623 10.6042 330.411 10.6042 318.527C10.6042 306.643 24.3242 294.486 49.1403 283.856C98.8271 303.808 179.233 314.875 258 314.875C336.767 314.875 417.173 303.754 466.86 283.856C491.676 294.486 505.396 306.643 505.396 318.527ZM63.5708 278.296C107.026 263.141 174.861 252.292 258 252.292C341.139 252.292 408.974 263.141 452.429 278.296C408.974 293.451 341.139 304.299 258 304.299C174.861 304.244 107.026 293.451 63.5708 278.296ZM505.396 238.01C505.396 249.894 491.676 262.05 466.86 272.681C417.173 252.728 336.767 241.662 258 241.662C179.233 241.662 98.8271 252.783 49.1403 272.681C24.3242 262.05 10.6042 249.839 10.6042 238.01C10.6042 226.125 24.3242 213.969 49.1403 203.338C98.8271 223.291 179.233 234.357 258 234.357C336.767 234.357 417.173 223.236 466.86 203.338C491.676 213.914 505.396 226.125 505.396 238.01ZM63.5708 197.723C107.026 182.568 174.861 171.72 258 171.72C341.139 171.72 408.974 182.568 452.429 197.723C408.974 212.878 341.139 223.727 258 223.727C174.861 223.727 107.026 212.878 63.5708 197.723ZM466.86 192.163C417.228 172.211 336.767 161.144 258 161.144C179.233 161.144 98.8271 172.265 49.1403 192.163C24.3242 181.533 10.6042 169.322 10.6042 157.492C10.6042 145.608 24.3242 133.451 49.1403 122.821C98.8271 142.773 179.233 153.839 258 153.839C336.767 153.839 417.173 142.719 466.86 122.821C491.676 133.451 505.396 145.662 505.396 157.492C505.396 169.322 491.676 181.533 466.86 192.163Z" fill="#7CA2BA"/>
</svg>
