<svg width="14" height="38" viewBox="0 0 14 38" fill="none" xmlns="http://www.w3.org/2000/svg">
<path d="M9.78498 0H4.1357C1.81203 0 0 2.26165 0 5.16339V32.8366C0 35.7384 1.81203 38 4.1357 38H9.78498C12.1086 38 13.9207 35.7384 13.9207 32.8366V5.14206C13.9207 2.26165 12.1086 0 9.78498 0ZM11.5117 32.8366C11.5117 34.3088 10.7017 35.589 9.78498 35.589H4.1357C3.21902 35.589 2.40894 34.3088 2.40894 32.8366V5.14206C2.40894 3.66985 3.21902 2.38967 4.1357 2.38967H9.78498C10.7017 2.38967 11.5117 3.66985 11.5117 5.14206V32.8366Z" fill="white"/>
</svg>
