<svg width="14" height="20" viewBox="0 0 14 20" fill="none" xmlns="http://www.w3.org/2000/svg">
<path d="M4.15927 0C1.82236 0 0 2.27454 0 5.19282V14.291C0 17.2092 1.82236 19.4838 4.15927 19.4838H9.84074C12.1776 19.4838 14 17.2092 14 14.291V5.19282C14 2.27454 12.1776 0 9.84074 0H4.15927ZM11.5773 5.19282V14.291C11.5773 15.7716 10.7626 17.059 9.84074 17.059H4.15927C3.23737 17.059 2.42267 15.7716 2.42267 14.291V5.19282C2.42267 3.71222 3.23737 2.42474 4.15927 2.42474H9.84074C10.7626 2.42474 11.5773 3.71222 11.5773 5.19282Z" fill="white"/>
</svg>
