<svg width="36" height="36" viewBox="0 0 36 36" fill="none" xmlns="http://www.w3.org/2000/svg">
<path d="M35.8256 33.1667C35.8256 14.8789 21.028 0 2.84039 0C1.28276 0 0 1.28982 0 2.85602C0 4.42222 1.28276 5.71204 2.84039 5.71204C17.8899 5.71204 30.1219 18.0114 30.1219 33.1437C30.1219 34.7099 31.4046 35.9997 32.9623 35.9997C34.5428 36.0227 35.8256 34.7329 35.8256 33.1667ZM31.4275 33.1667C31.4275 17.3204 18.6 4.42222 2.84039 4.42222C1.99285 4.42222 1.28276 3.73125 1.28276 2.85602C1.28276 1.98079 1.96995 1.28982 2.84039 1.28982C20.3179 1.28982 34.5199 15.5699 34.5199 33.1437C34.5199 33.9959 33.8327 34.7099 32.9623 34.7099C32.1376 34.7099 31.4275 34.0189 31.4275 33.1667Z" fill="white"/>
</svg>
