<svg width="14" height="28" viewBox="0 0 14 28" fill="none" xmlns="http://www.w3.org/2000/svg">
<path d="M4.15888 0C1.82219 0 0 2.27433 0 5.19233V22.8076C0 25.7256 1.82219 28 4.15888 28H9.83983C12.1765 28 13.9987 25.7256 13.9987 22.8076V5.19233C13.9987 2.27433 12.1765 0 9.83983 0H4.15888ZM11.5763 5.19233V22.8076C11.5763 24.2881 10.7616 25.5755 9.83983 25.5755H4.15888C3.23707 25.5755 2.42244 24.2881 2.42244 22.8076V5.19233C2.42244 3.71187 3.23707 2.42452 4.15888 2.42452H9.83983C10.7831 2.42452 11.5763 3.71187 11.5763 5.19233Z" fill="white"/>
</svg>
