<svg width="51" height="35" viewBox="0 0 51 35" fill="none" xmlns="http://www.w3.org/2000/svg">
<path d="M1.27982 30.9949C0.645521 30.9526 0.0957927 31.397 0.0112191 32.0107C-0.0733545 32.6244 0.32837 33.2169 0.941529 33.3439C5.3605 34.2961 9.3566 34.7405 12.9721 34.7405C30.1406 34.7405 39.0419 24.9004 45.3638 14.4466L49.1908 16.7532C49.5925 16.986 50.0999 16.986 50.4805 16.7109C50.8611 16.4569 51.0514 15.9914 50.988 15.5258L48.5353 0.987845C48.4719 0.628099 48.2605 0.310675 47.9222 0.141383C47.5839 -0.0279094 47.2244 -0.049071 46.8862 0.0990599L33.883 5.62222C33.4601 5.81268 33.1641 6.21475 33.1641 6.6803C33.1429 7.14586 33.4178 7.56909 33.8407 7.7807L37.7522 9.68524C27.2651 32.7513 2.33699 31.0796 1.27982 30.9949ZM40.374 9.57943C40.6277 8.98691 40.374 8.3309 39.8031 8.03464L37.2025 6.76495L46.421 2.85006L48.197 13.3462L45.5753 11.7591C45.3004 11.5898 44.9832 11.5475 44.6661 11.6321C44.3489 11.7168 44.0952 11.9072 43.9261 12.1823C37.5408 23.0382 29.2103 32.6667 12.1898 32.3281C21.3661 30.4024 33.9252 24.8792 40.374 9.57943Z" fill="white"/>
</svg>
