<svg width="69" height="69" viewBox="0 0 69 69" fill="none" xmlns="http://www.w3.org/2000/svg">
<path d="M32.6484 68.9362H35.9685C54.5062 68.1487 69 53.0589 69 34.4787C69 15.8985 54.5062 0.787477 35.9685 0H32.6909L32.6697 0.0212832C14.3236 1.00031 0 16.0901 0 34.4787C0 52.8461 14.3236 67.9571 32.6484 68.9362ZM11.8122 56.7835C14.0043 55.1872 16.3668 53.8251 18.8782 52.7184C21.2406 57.6774 24.5395 62.0617 28.711 65.765C22.326 64.5944 16.4093 61.4445 11.8122 56.7835ZM33.1592 65.9778C28.1151 62.1894 24.05 57.273 21.347 51.7181C25.1354 50.3347 29.0941 49.5472 33.1592 49.3769V65.9778ZM33.1592 46.7165C28.7323 46.9081 24.3905 47.7594 20.2616 49.2918C18.6866 45.3757 17.7714 41.2255 17.516 36.9476H33.1592V46.7165ZM33.1592 34.2659H17.4309C17.4522 29.8816 18.1758 25.5824 19.5805 21.496C23.9223 23.1987 28.4769 24.1777 33.1592 24.3692V34.2659ZM39.8421 65.8501C44.1838 61.9979 47.5892 57.422 49.9942 52.2502C52.6758 53.3356 55.2298 54.719 57.5922 56.3791C52.8461 61.3806 46.6101 64.7008 39.8421 65.8501ZM59.3587 54.3359C56.7835 52.5056 53.9741 50.9732 51.037 49.7813C52.612 45.695 53.5484 41.3745 53.7826 36.9263H66.2332C65.7437 43.3112 63.3813 49.3344 59.3587 54.3359ZM60.3591 15.9198C64.2326 21.3044 66.2971 27.6255 66.3396 34.2446H53.8677C53.8464 29.7113 53.1015 25.2418 51.6755 20.9639C54.7616 19.6444 57.6774 17.9417 60.3591 15.9198ZM58.699 13.8128C56.2301 15.6644 53.5697 17.2394 50.7391 18.4738C48.3554 12.6209 44.6095 7.34269 39.8208 3.08606C47.1848 4.34177 53.8251 8.10889 58.699 13.8128ZM35.8408 3.23504C41.3958 7.51296 45.695 13.0891 48.2915 19.4528C44.2903 20.8788 40.1188 21.6663 35.8408 21.7514V3.23504ZM35.8408 24.4331C40.4167 24.3479 44.9075 23.5179 49.2067 21.9642C50.505 25.9229 51.186 30.0518 51.2073 34.2659H35.8408V24.4331ZM35.8408 36.9263H51.1222C50.8668 41.0552 50.0154 45.0565 48.5256 48.8661C44.4392 47.504 40.1826 46.7804 35.8408 46.6953V36.9263ZM35.8408 49.3344C39.8208 49.4195 43.7369 50.0793 47.4827 51.3137C44.8649 56.8899 40.8424 61.8489 35.8408 65.7011V49.3344ZM33.1592 2.95836V21.7088C28.8174 21.5173 24.5821 20.6021 20.5383 19.0059C23.2199 12.7061 27.5617 7.17243 33.1592 2.95836ZM28.711 3.17119C24.1138 7.27884 20.4744 12.3442 18.112 17.9417C15.4941 16.686 13.004 15.1536 10.7054 13.3445C15.4303 8.02375 21.7727 4.46946 28.711 3.17119ZM9.02406 15.4303C11.5355 17.4096 14.2597 19.091 17.1329 20.4531C15.5793 24.88 14.7918 29.5198 14.7705 34.2872H2.6604C2.70296 27.434 4.89513 20.9213 9.02406 15.4303ZM2.76681 36.9476H14.8556C15.111 41.566 16.1114 46.0568 17.814 50.2921C15.0472 51.5053 12.4294 53.0376 10.0244 54.8042C5.76774 49.6962 3.27761 43.5454 2.76681 36.9476Z" fill="white"/>
</svg>
