<svg width="26" height="26" viewBox="0 0 26 26" fill="none" xmlns="http://www.w3.org/2000/svg">
<path d="M20.0572 23.0955C20.0572 24.6883 21.3617 26 22.9458 26C24.5299 26 25.8344 24.6883 25.8344 23.0955C25.8344 10.3766 15.5379 0 2.88861 0C1.30453 0 0 1.31171 0 2.9045C0 4.4973 1.30453 5.80901 2.88861 5.80901C12.3698 5.83243 20.0572 13.5622 20.0572 23.0955ZM1.30453 2.9045C1.30453 2.03784 2.00339 1.31171 2.88861 1.31171C14.8158 1.31171 24.5299 11.0793 24.5299 23.0721C24.5299 23.9387 23.831 24.6649 22.9458 24.6649C22.0839 24.6649 21.3617 23.9622 21.3617 23.0721C21.3617 12.8126 13.0686 4.47387 2.86531 4.47387C2.02669 4.4973 1.30453 3.79459 1.30453 2.9045Z" fill="white"/>
</svg>
