<svg width="65" height="63" viewBox="0 0 65 63" fill="none" xmlns="http://www.w3.org/2000/svg">
<path d="M1.23134 22.749C7.16339 44.6196 26.2011 60.6872 48.6417 62.6986C49.1475 62.7448 49.6534 62.768 50.1592 62.768C52.2975 62.768 54.3438 62.3518 56.1602 61.5427C56.7121 61.2883 57.1719 61.0571 57.5398 60.826C58.5285 60.248 59.4252 59.5313 60.1609 58.699L62.2302 56.4102C62.6441 55.9479 63.012 55.4392 63.4028 54.815C64.0236 53.7978 64.4605 52.7343 64.7134 51.6709C65.6101 47.81 64.3685 43.7873 61.4715 41.1286L57.9996 37.9613C56.5971 36.6898 54.8727 35.8113 53.0333 35.4182C52.2745 35.2564 51.5158 35.1639 50.803 35.1639C47.768 35.1639 44.871 36.4586 42.8246 38.7242L40.7553 41.013C39.9276 41.9147 39.2838 42.955 38.8239 44.0647C30.5237 40.5738 23.7179 34.3085 19.5333 26.3094C21.0738 25.7083 22.4533 24.7373 23.557 23.4889L25.6263 21.2001C27.5577 19.05 28.5463 16.2989 28.3854 13.409C28.3624 13.1316 28.3394 12.8541 28.2934 12.5767C27.9715 10.0105 26.7529 7.65237 24.8446 5.91845L21.3497 2.79739C19.3724 0.994116 16.8202 0 14.1301 0C13.5553 0 12.9575 0.0462383 12.2907 0.161833C10.3823 0.508617 8.58892 1.36402 7.1174 2.63556C6.72653 2.95923 6.42763 3.25977 6.15172 3.56032L4.10539 5.84909C3.82949 6.14964 3.55358 6.49643 3.30066 6.86633C1.0474 8.87768 -0.746006 13.2934 0.311646 18.7495C0.54157 20.0441 0.863464 21.3619 1.23134 22.749ZM5.04808 8.7852C5.09407 8.73896 5.14005 8.69273 5.16305 8.66961L5.25502 8.55401C5.301 8.50777 5.34699 8.46154 5.36998 8.4153C5.57691 8.11475 5.78384 7.83732 6.01377 7.58302L8.08308 5.29424C8.26702 5.08617 8.49695 4.85498 8.79585 4.60067C9.92248 3.62968 11.279 2.98234 12.7505 2.72804C13.2564 2.63556 13.7162 2.58932 14.1301 2.58932C16.1534 2.58932 18.1078 3.35225 19.6023 4.71627L23.0741 7.88356C24.5457 9.22446 25.4424 10.9584 25.6953 12.9235C25.7183 13.1316 25.7413 13.3396 25.7643 13.5477C25.8792 15.744 25.1205 17.8478 23.6719 19.4662L21.6026 21.7549C20.591 22.8646 19.3264 23.6738 17.9008 24.1131L17.2801 24.298C16.9122 24.4367 16.6133 24.691 16.4753 25.0378C16.3144 25.3846 16.3374 25.8007 16.4983 26.1244L16.7972 26.7024C21.3497 35.8806 29.0752 43.0012 38.548 46.7696L39.0999 46.9777C39.4218 47.0933 39.7896 47.0933 40.1115 46.9315C40.4334 46.7696 40.6863 46.4922 40.7783 46.1685L40.9622 45.6137C41.3301 44.5502 41.8819 43.5792 42.6407 42.7238L44.71 40.435C46.2505 38.7242 48.4578 37.7301 50.78 37.7301C51.3318 37.7301 51.9066 37.7995 52.4814 37.9151C53.884 38.2156 55.1945 38.8861 56.2522 39.8571L59.7241 43.0244C61.9313 45.0357 62.874 48.0874 62.1842 51.0235C62.0003 51.8327 61.6554 52.6419 61.1726 53.4048C60.8737 53.8903 60.5978 54.2833 60.2989 54.607L58.2296 56.8957C57.6547 57.52 56.988 58.0748 56.2062 58.5372C55.9073 58.7221 55.5394 58.9071 55.1026 59.1152C53.2632 59.9474 51.1019 60.2711 48.8716 60.063C27.5117 58.1442 9.37066 42.8394 3.73752 22.0092C3.36964 20.6915 3.09373 19.443 2.84081 18.1946C1.92112 13.4783 3.66854 9.96427 5.04808 8.7852Z" fill="white"/>
</svg>
